<mxfile host="app.diagrams.net" modified="2021-11-09T23:24:54.898Z" agent="5.0 (Windows NT 10.0; Win64; x64) AppleWebKit/537.36 (KHTML, like Gecko) Chrome/95.0.4638.69 Safari/537.36" etag="44PhqU6YfReErzkrevLX" version="15.7.1" type="github">
  <diagram id="C5RBs43oDa-KdzZeNtuy" name="Page-1">
    <mxGraphModel dx="1038" dy="539" grid="1" gridSize="10" guides="1" tooltips="1" connect="1" arrows="1" fold="1" page="1" pageScale="1" pageWidth="827" pageHeight="1169" math="0" shadow="0">
      <root>
        <mxCell id="WIyWlLk6GJQsqaUBKTNV-0" />
        <mxCell id="WIyWlLk6GJQsqaUBKTNV-1" parent="WIyWlLk6GJQsqaUBKTNV-0" />
        <mxCell id="cQRJ3KthYFVlYncUxz4Q-3" value="" style="edgeStyle=orthogonalEdgeStyle;rounded=0;orthogonalLoop=1;jettySize=auto;html=1;" edge="1" parent="WIyWlLk6GJQsqaUBKTNV-1" source="cQRJ3KthYFVlYncUxz4Q-1" target="cQRJ3KthYFVlYncUxz4Q-2">
          <mxGeometry relative="1" as="geometry" />
        </mxCell>
        <mxCell id="cQRJ3KthYFVlYncUxz4Q-1" value="Is the year a leap year?" style="rounded=0;whiteSpace=wrap;html=1;" vertex="1" parent="WIyWlLk6GJQsqaUBKTNV-1">
          <mxGeometry x="240" y="40" width="120" height="60" as="geometry" />
        </mxCell>
        <mxCell id="cQRJ3KthYFVlYncUxz4Q-5" value="No" style="edgeStyle=orthogonalEdgeStyle;rounded=0;orthogonalLoop=1;jettySize=auto;html=1;" edge="1" parent="WIyWlLk6GJQsqaUBKTNV-1" source="cQRJ3KthYFVlYncUxz4Q-2" target="cQRJ3KthYFVlYncUxz4Q-4">
          <mxGeometry relative="1" as="geometry" />
        </mxCell>
        <mxCell id="cQRJ3KthYFVlYncUxz4Q-7" value="Yes" style="edgeStyle=orthogonalEdgeStyle;rounded=0;orthogonalLoop=1;jettySize=auto;html=1;" edge="1" parent="WIyWlLk6GJQsqaUBKTNV-1" source="cQRJ3KthYFVlYncUxz4Q-2" target="cQRJ3KthYFVlYncUxz4Q-6">
          <mxGeometry relative="1" as="geometry">
            <Array as="points">
              <mxPoint x="489" y="200" />
            </Array>
          </mxGeometry>
        </mxCell>
        <mxCell id="cQRJ3KthYFVlYncUxz4Q-2" value="Is it divisible by 4?" style="rhombus;whiteSpace=wrap;html=1;rounded=0;" vertex="1" parent="WIyWlLk6GJQsqaUBKTNV-1">
          <mxGeometry x="215" y="160" width="170" height="80" as="geometry" />
        </mxCell>
        <mxCell id="cQRJ3KthYFVlYncUxz4Q-4" value="Not Leap" style="ellipse;whiteSpace=wrap;html=1;rounded=0;" vertex="1" parent="WIyWlLk6GJQsqaUBKTNV-1">
          <mxGeometry x="50" y="260" width="120" height="60" as="geometry" />
        </mxCell>
        <mxCell id="cQRJ3KthYFVlYncUxz4Q-9" value="Yes" style="edgeStyle=orthogonalEdgeStyle;rounded=0;orthogonalLoop=1;jettySize=auto;html=1;" edge="1" parent="WIyWlLk6GJQsqaUBKTNV-1" source="cQRJ3KthYFVlYncUxz4Q-6" target="cQRJ3KthYFVlYncUxz4Q-8">
          <mxGeometry relative="1" as="geometry" />
        </mxCell>
        <mxCell id="cQRJ3KthYFVlYncUxz4Q-13" value="" style="edgeStyle=orthogonalEdgeStyle;rounded=0;orthogonalLoop=1;jettySize=auto;html=1;" edge="1" parent="WIyWlLk6GJQsqaUBKTNV-1" source="cQRJ3KthYFVlYncUxz4Q-6" target="cQRJ3KthYFVlYncUxz4Q-12">
          <mxGeometry relative="1" as="geometry" />
        </mxCell>
        <mxCell id="cQRJ3KthYFVlYncUxz4Q-14" value="No" style="edgeLabel;html=1;align=center;verticalAlign=middle;resizable=0;points=[];" vertex="1" connectable="0" parent="cQRJ3KthYFVlYncUxz4Q-13">
          <mxGeometry x="-0.2209" y="-1" relative="1" as="geometry">
            <mxPoint as="offset" />
          </mxGeometry>
        </mxCell>
        <mxCell id="cQRJ3KthYFVlYncUxz4Q-6" value="Is it cleanly divisible by 100?" style="rhombus;whiteSpace=wrap;html=1;rounded=0;" vertex="1" parent="WIyWlLk6GJQsqaUBKTNV-1">
          <mxGeometry x="414" y="250" width="150" height="80" as="geometry" />
        </mxCell>
        <mxCell id="cQRJ3KthYFVlYncUxz4Q-11" value="Yes" style="edgeStyle=orthogonalEdgeStyle;rounded=0;orthogonalLoop=1;jettySize=auto;html=1;" edge="1" parent="WIyWlLk6GJQsqaUBKTNV-1" source="cQRJ3KthYFVlYncUxz4Q-8" target="cQRJ3KthYFVlYncUxz4Q-10">
          <mxGeometry relative="1" as="geometry" />
        </mxCell>
        <mxCell id="cQRJ3KthYFVlYncUxz4Q-16" value="" style="edgeStyle=orthogonalEdgeStyle;rounded=0;orthogonalLoop=1;jettySize=auto;html=1;" edge="1" parent="WIyWlLk6GJQsqaUBKTNV-1" source="cQRJ3KthYFVlYncUxz4Q-8" target="cQRJ3KthYFVlYncUxz4Q-15">
          <mxGeometry relative="1" as="geometry" />
        </mxCell>
        <mxCell id="cQRJ3KthYFVlYncUxz4Q-8" value="Is it cleanlydivisible by 400?" style="rhombus;whiteSpace=wrap;html=1;rounded=0;" vertex="1" parent="WIyWlLk6GJQsqaUBKTNV-1">
          <mxGeometry x="600" y="340" width="150" height="80" as="geometry" />
        </mxCell>
        <mxCell id="cQRJ3KthYFVlYncUxz4Q-10" value="Leap" style="ellipse;whiteSpace=wrap;html=1;rounded=0;" vertex="1" parent="WIyWlLk6GJQsqaUBKTNV-1">
          <mxGeometry x="615" y="460" width="120" height="60" as="geometry" />
        </mxCell>
        <mxCell id="cQRJ3KthYFVlYncUxz4Q-12" value="Leap" style="ellipse;whiteSpace=wrap;html=1;rounded=0;" vertex="1" parent="WIyWlLk6GJQsqaUBKTNV-1">
          <mxGeometry x="270" y="340" width="120" height="60" as="geometry" />
        </mxCell>
        <mxCell id="cQRJ3KthYFVlYncUxz4Q-15" value="Not Leap" style="ellipse;whiteSpace=wrap;html=1;rounded=0;" vertex="1" parent="WIyWlLk6GJQsqaUBKTNV-1">
          <mxGeometry x="470" y="430" width="120" height="60" as="geometry" />
        </mxCell>
      </root>
    </mxGraphModel>
  </diagram>
</mxfile>
